<svg width="19" height="19" viewBox="0 0 19 19" fill="none" xmlns="http://www.w3.org/2000/svg">
<path fill-rule="evenodd" clip-rule="evenodd" d="M18 9.5C18 14.1944 14.1944 18 9.5 18C4.80558 18 1 14.1944 1 9.5C1 4.80558 4.80558 1 9.5 1C14.1944 1 18 4.80558 18 9.5ZM19 9.5C19 14.7467 14.7467 19 9.5 19C4.25329 19 0 14.7467 0 9.5C0 4.25329 4.25329 0 9.5 0C14.7467 0 19 4.25329 19 9.5ZM6.414 9.80467L8.138 11.5287L13.1953 6.47133C13.4556 6.21102 13.8777 6.21102 14.138 6.47133C14.3983 6.73164 14.3983 7.15369 14.138 7.414L8.138 13.414L5.47133 10.7473C5.21102 10.487 5.21102 10.065 5.47133 9.80467C5.73164 9.54436 6.15369 9.54436 6.414 9.80467Z" fill="black"/>
</svg>
