<svg width="24" height="24" xmlns="http://www.w3.org/2000/svg">

 <g>
  <title>background</title>
  <rect fill="none" id="canvas_background" height="402" width="582" y="-1" x="-1"/>
 </g>
 <g>
  <title>Layer 1</title>
  <path fill="#35ccbb" id="svg_1" d="m1.6,13.5l8.9,0l0,8.9c0,0.8 0.7,1.5 1.5,1.5c0.8,0 1.5,-0.7 1.5,-1.5l0,-8.9l8.9,0c0.8,0 1.5,-0.7 1.5,-1.5c0,-0.8 -0.7,-1.5 -1.5,-1.5l-8.9,0l0,-8.9c0,-0.8 -0.7,-1.5 -1.5,-1.5c-0.8,0 -1.5,0.7 -1.5,1.5l0,8.9l-8.9,0c-0.8,0 -1.5,0.7 -1.5,1.5c0.1,0.8 0.7,1.5 1.5,1.5z"/>
 </g>
</svg>