<svg width="54" height="83" viewBox="0 0 54 83" fill="none" xmlns="http://www.w3.org/2000/svg">
<path d="M27 80.7944C29.2941 80.7944 31.1538 78.9234 31.1538 76.6153C31.1538 74.3073 29.2941 72.4363 27 72.4363C24.7059 72.4363 22.8462 74.3073 22.8462 76.6153C22.8462 78.9234 24.7059 80.7944 27 80.7944Z" fill="url(#paint0_linear)"/>
<path fill-rule="evenodd" clip-rule="evenodd" d="M9 0C4.02944 0 0 4.05384 0 9.05453V73.9455C0 78.9461 4.02943 83 9 83H45C49.9706 83 54 78.9462 54 73.9455V9.05455C54 4.05386 49.9706 0 45 0H9ZM11.7692 6.965C6.79867 6.965 2.76923 11.0189 2.76923 16.0196V60.5958C2.76923 65.5965 6.79867 69.6503 11.7692 69.6503H42.2308C47.2013 69.6503 51.2308 65.5965 51.2308 60.5958V16.0195C51.2308 11.0189 47.2013 6.965 42.2308 6.965H11.7692ZM32.5385 76.6153C32.5385 79.6927 30.0588 82.1874 27 82.1874C23.9412 82.1874 21.4615 79.6927 21.4615 76.6153C21.4615 73.538 23.9412 71.0433 27 71.0433C30.0588 71.0433 32.5385 73.538 32.5385 76.6153Z" fill="url(#paint1_linear)"/>
<defs>
<linearGradient id="paint0_linear" x1="23.0636" y1="99.4086" x2="44.9693" y2="-55.5974" gradientUnits="userSpaceOnUse">
<stop stop-color="#50B49C"/>
<stop offset="1" stop-color="#66FDF9"/>
</linearGradient>
<linearGradient id="paint1_linear" x1="23.0636" y1="99.4086" x2="44.9693" y2="-55.5974" gradientUnits="userSpaceOnUse">
<stop stop-color="#50B49C"/>
<stop offset="1" stop-color="#66FDF9"/>
</linearGradient>
</defs>
</svg>
